<?xml version="1.0" standalone="no"?>
<!DOCTYPE svg PUBLIC "-//W3C//DTD SVG 20010904//EN"
 "http://www.w3.org/TR/2001/REC-SVG-20010904/DTD/svg10.dtd">
<svg version="1.0" xmlns="http://www.w3.org/2000/svg"
 width="800.000000pt" height="431.000000pt" viewBox="0 0 800.000000 431.000000"
 preserveAspectRatio="xMidYMid meet">
<metadata>
Created by potrace 1.15, written by Peter Selinger 2001-2017
</metadata>
<g transform="translate(0.000000,431.000000) scale(0.100000,-0.100000)"
fill="#000000" stroke="none">
<path d="M3540 3145 l0 -525 -512 -2 c-282 0 -519 -1 -525 -1 -10 1 -13 -98
-13 -463 l0 -464 525 0 525 0 0 -525 0 -525 460 0 460 0 0 525 0 525 525 0
525 0 0 465 0 465 -522 0 -523 -1 -3 526 -2 525 -460 0 -460 0 0 -525z"/>
</g>
</svg>
